<?xml version="1.0" encoding="UTF-8"?>
<svg width="700pt" height="700pt" version="1.1" viewBox="0 0 700 700" xmlns="http://www.w3.org/2000/svg">
 <g>
  <path d="m346.52 160.94c-30.973 0.91016-60.367 13.852-81.949 36.078-21.586 22.227-33.66 51.992-33.66 82.973-0.23437 31.738 12.211 62.262 34.57 84.785 22.359 22.527 52.789 35.199 84.527 35.199 31.742 0 62.168-12.672 84.527-35.199 22.359-22.523 34.805-53.047 34.57-84.785 0-32.191-13.031-63.012-36.125-85.441-23.094-22.426-54.285-34.551-86.461-33.609zm3.4727 11.371v215.39c-38.453-0.03125-73.973-20.566-93.191-53.875-19.219-33.305-19.219-74.336 0-107.64 19.219-33.309 54.738-53.844 93.191-53.875z"/>
  <path d="m523.43 98.512-59.457 59.453c-2.2031 2.2344-2.1875 5.832 0.039062 8.0508 2.2227 2.2188 5.8203 2.2227 8.0508 0.015625l59.426-59.453c2.1172-2.2461 2.0664-5.7656-0.11328-7.9453-2.1797-2.1836-5.6992-2.2383-7.9453-0.12109z"/>
  <path d="m600.96 274.3h-84.086c-3.125 0.03125-5.6445 2.5742-5.6445 5.7031s2.5195 5.6719 5.6445 5.7031h84.086c3.1289-0.03125 5.6484-2.5742 5.6484-5.7031s-2.5195-5.6719-5.6484-5.7031z"/>
  <path d="m531.48 453.42-59.426-59.453c-2.2344-2.2031-5.8242-2.1953-8.0469 0.019531-2.2227 2.2148-2.2422 5.8086-0.042969 8.0469l59.457 59.453c2.2461 2.1094 5.7617 2.0508 7.9375-0.12891 2.1758-2.1758 2.2305-5.6914 0.12109-7.9375z"/>
  <path d="m355.71 530.96v-84.078c0-3.1523-2.5547-5.7031-5.7031-5.7031-3.1484 0-5.7031 2.5508-5.707 5.7031v84.078c0.003906 3.1484 2.5586 5.7031 5.707 5.7031 3.1484 0 5.7031-2.5547 5.7031-5.7031z"/>
  <path d="m176.57 461.49 59.461-59.453c2.1133-2.2422 2.0625-5.7617-0.11719-7.9414-2.1758-2.1797-5.6953-2.2344-7.9414-0.125l-59.461 59.453c-2.1094 2.2461-2.0547 5.7617 0.12109 7.9414 2.1797 2.1758 5.6914 2.2344 7.9375 0.125z"/>
  <path d="m99.039 285.7h84.086c3.1289-0.03125 5.6484-2.5742 5.6484-5.7031s-2.5195-5.6719-5.6484-5.7031h-84.086c-3.1289 0.03125-5.6484 2.5742-5.6484 5.7031s2.5195 5.6719 5.6484 5.7031z"/>
  <path d="m168.52 106.58 59.461 59.453c2.2461 2.1133 5.7656 2.0586 7.9453-0.12109 2.1797-2.1836 2.2305-5.7031 0.11328-7.9453l-59.461-59.453c-2.2461-2.1172-5.7656-2.0625-7.9453 0.12109-2.1797 2.1797-2.2305 5.6992-0.11328 7.9453z"/>
  <path d="m344.3 29.039v84.082-0.003906c0.003906 3.1523 2.5586 5.7031 5.707 5.7031 3.1484 0 5.7031-2.5508 5.7031-5.7031v-84.082 0.003906c0-3.1523-2.5547-5.7031-5.7031-5.7031-3.1484 0-5.7031 2.5508-5.707 5.7031z"/>
 </g>
</svg>
