<?xml version="1.0" encoding="UTF-8"?>
<svg width="700pt" height="700pt" version="1.1" viewBox="0 0 700 700" xmlns="http://www.w3.org/2000/svg">
 <g>
  <path d="m350 175c-57.906 0-105 47.094-105 105s47.094 105 105 105 105-47.094 105-105-47.094-105-105-105z"/>
  <path d="m350 140c9.6602 0 17.5-7.8242 17.5-17.5v-70c0-9.6758-7.8398-17.5-17.5-17.5s-17.5 7.8242-17.5 17.5v70c0 9.6758 7.8398 17.5 17.5 17.5z"/>
  <path d="m461.37 186.13c4.4805 0 8.9609-1.7148 12.371-5.1289l49.508-49.488c6.8438-6.8438 6.8438-17.902 0-24.746s-17.902-6.8438-24.746 0l-49.508 49.488c-6.8438 6.8438-6.8438 17.902 0 24.746 3.4141 3.4141 7.8945 5.1289 12.375 5.1289z"/>
  <path d="m226.26 181.02c3.4141 3.4141 7.8906 5.1289 12.371 5.1289 4.4805 0 8.9609-1.7148 12.371-5.1289 6.8438-6.8438 6.8438-17.902 0-24.746l-49.488-49.508c-6.8438-6.8438-17.902-6.8438-24.746 0s-6.8438 17.902 0 24.746z"/>
  <path d="m350 420c-9.6602 0-17.5 7.8242-17.5 17.5v70c0 9.6758 7.8398 17.5 17.5 17.5s17.5-7.8242 17.5-17.5v-70c0-9.6758-7.8398-17.5-17.5-17.5z"/>
  <path d="m226.26 379-49.508 49.488c-6.8438 6.8438-6.8438 17.902 0 24.746 3.4141 3.4141 7.8906 5.1289 12.371 5.1289 4.4805 0 8.9609-1.7148 12.371-5.1289l49.508-49.488c6.8438-6.8438 6.8438-17.902 0-24.746-6.8398-6.8398-17.898-6.8242-24.742 0z"/>
  <path d="m473.74 378.98c-6.8438-6.8438-17.902-6.8438-24.746 0s-6.8438 17.902 0 24.746l49.488 49.508c3.4141 3.4141 7.8906 5.1289 12.371 5.1289s8.9609-1.7148 12.371-5.1289c6.8438-6.8438 6.8438-17.902 0-24.746z"/>
  <path d="m210 280c0-9.6406-7.8242-17.5-17.5-17.5h-70c-9.6602 0-17.5 7.8242-17.5 17.5 0 9.6602 7.8242 17.5 17.5 17.5h70c9.6602 0 17.5-7.8242 17.5-17.5z"/>
  <path d="m577.5 262.5h-70c-9.6602 0-17.5 7.8242-17.5 17.5s7.8398 17.5 17.5 17.5h70c9.6602 0 17.5-7.8242 17.5-17.5s-7.8398-17.5-17.5-17.5z"/>
 </g>
</svg>
